<svg width="229" height="57" viewBox="0 0 229 57" fill="none" xmlns="http://www.w3.org/2000/svg">
<path d="M0.0560001 28.672C0.0560001 26.592 0.44 24.544 1.208 22.528C2.008 20.512 3.16 18.704 4.664 17.104C6.168 15.504 7.992 14.208 10.136 13.216C12.28 12.224 14.728 11.728 17.48 11.728C20.776 11.728 23.624 12.416 26.024 13.792C28.456 15.136 30.264 16.928 31.448 19.168L24.296 24.256C23.976 23.424 23.544 22.736 23 22.192C22.488 21.648 21.912 21.216 21.272 20.896C20.632 20.576 19.96 20.352 19.256 20.224C18.584 20.096 17.928 20.032 17.288 20.032C15.944 20.032 14.776 20.304 13.784 20.848C12.824 21.36 12.024 22.048 11.384 22.912C10.776 23.744 10.312 24.704 9.992 25.792C9.704 26.848 9.56 27.904 9.56 28.96C9.56 30.144 9.736 31.28 10.088 32.368C10.44 33.456 10.952 34.416 11.624 35.248C12.296 36.08 13.112 36.752 14.072 37.264C15.064 37.744 16.168 37.984 17.384 37.984C18.024 37.984 18.68 37.92 19.352 37.792C20.024 37.632 20.664 37.392 21.272 37.072C21.912 36.72 22.472 36.288 22.952 35.776C23.464 35.232 23.864 34.576 24.152 33.808L31.784 38.368C31.272 39.616 30.488 40.736 29.432 41.728C28.408 42.72 27.224 43.552 25.88 44.224C24.568 44.896 23.144 45.408 21.608 45.76C20.104 46.112 18.632 46.288 17.192 46.288C14.664 46.288 12.344 45.792 10.232 44.8C8.152 43.776 6.344 42.432 4.808 40.768C3.304 39.104 2.136 37.216 1.304 35.104C0.472 32.992 0.0560001 30.848 0.0560001 28.672ZM46.7315 46.48C44.6835 46.48 42.8435 46.128 41.2115 45.424C39.5795 44.72 38.1875 43.776 37.0355 42.592C35.9155 41.376 35.0515 39.984 34.4435 38.416C33.8355 36.848 33.5315 35.2 33.5315 33.472C33.5315 31.712 33.8355 30.048 34.4435 28.48C35.0515 26.912 35.9155 25.536 37.0355 24.352C38.1875 23.136 39.5795 22.176 41.2115 21.472C42.8435 20.768 44.6835 20.416 46.7315 20.416C48.7795 20.416 50.6035 20.768 52.2035 21.472C53.8355 22.176 55.2115 23.136 56.3315 24.352C57.4835 25.536 58.3635 26.912 58.9715 28.48C59.5795 30.048 59.8835 31.712 59.8835 33.472C59.8835 35.2 59.5795 36.848 58.9715 38.416C58.3635 39.984 57.4995 41.376 56.3795 42.592C55.2595 43.776 53.8835 44.72 52.2515 45.424C50.6195 46.128 48.7795 46.48 46.7315 46.48ZM40.1555 33.472C40.1555 34.592 40.3155 35.616 40.6355 36.544C40.9875 37.44 41.4515 38.224 42.0275 38.896C42.6355 39.568 43.3395 40.096 44.1395 40.48C44.9395 40.832 45.8035 41.008 46.7315 41.008C47.6595 41.008 48.5235 40.832 49.3235 40.48C50.1235 40.096 50.8115 39.568 51.3875 38.896C51.9955 38.224 52.4595 37.424 52.7795 36.496C53.1315 35.568 53.3075 34.544 53.3075 33.424C53.3075 32.336 53.1315 31.328 52.7795 30.4C52.4595 29.472 51.9955 28.672 51.3875 28C50.8115 27.328 50.1235 26.816 49.3235 26.464C48.5235 26.08 47.6595 25.888 46.7315 25.888C45.8035 25.888 44.9395 26.08 44.1395 26.464C43.3395 26.848 42.6355 27.376 42.0275 28.048C41.4515 28.72 40.9875 29.52 40.6355 30.448C40.3155 31.376 40.1555 32.384 40.1555 33.472ZM87.6009 46H81.1689V31.888C81.1689 29.872 80.8169 28.4 80.1129 27.472C79.4089 26.544 78.4329 26.08 77.1849 26.08C76.5449 26.08 75.8889 26.208 75.2169 26.464C74.5449 26.72 73.9049 27.088 73.2969 27.568C72.7209 28.016 72.1929 28.56 71.7129 29.2C71.2329 29.84 70.8809 30.544 70.6569 31.312V46H64.2249V20.848H70.0329V25.504C70.9609 23.904 72.3049 22.656 74.0649 21.76C75.8249 20.864 77.8089 20.416 80.0169 20.416C81.5849 20.416 82.8649 20.704 83.8569 21.28C84.8489 21.856 85.6169 22.608 86.1609 23.536C86.7049 24.464 87.0729 25.52 87.2649 26.704C87.4889 27.888 87.6009 29.088 87.6009 30.304V46ZM108.031 44.704C107.167 45.088 106.111 45.472 104.863 45.856C103.615 46.24 102.303 46.432 100.927 46.432C100.031 46.432 99.1833 46.32 98.3833 46.096C97.6153 45.872 96.9273 45.52 96.3193 45.04C95.7433 44.528 95.2793 43.888 94.9273 43.12C94.5753 42.32 94.3993 41.36 94.3993 40.24V25.792H91.0873V20.848H94.3993V12.688H100.831V20.848H106.111V25.792H100.831V38.08C100.831 38.976 101.055 39.616 101.503 40C101.983 40.352 102.559 40.528 103.231 40.528C103.903 40.528 104.559 40.416 105.199 40.192C105.839 39.968 106.351 39.776 106.735 39.616L108.031 44.704ZM126.357 26.416C124.405 26.448 122.661 26.832 121.125 27.568C119.589 28.272 118.485 29.344 117.813 30.784V46H111.381V20.848H117.285V26.224C117.733 25.36 118.261 24.592 118.869 23.92C119.477 23.216 120.133 22.608 120.837 22.096C121.541 21.584 122.245 21.2 122.949 20.944C123.685 20.656 124.389 20.512 125.061 20.512C125.413 20.512 125.669 20.512 125.829 20.512C126.021 20.512 126.197 20.528 126.357 20.56V26.416ZM140.294 46.48C138.246 46.48 136.406 46.128 134.774 45.424C133.142 44.72 131.75 43.776 130.598 42.592C129.478 41.376 128.614 39.984 128.006 38.416C127.398 36.848 127.094 35.2 127.094 33.472C127.094 31.712 127.398 30.048 128.006 28.48C128.614 26.912 129.478 25.536 130.598 24.352C131.75 23.136 133.142 22.176 134.774 21.472C136.406 20.768 138.246 20.416 140.294 20.416C142.342 20.416 144.166 20.768 145.766 21.472C147.398 22.176 148.774 23.136 149.894 24.352C151.046 25.536 151.926 26.912 152.534 28.48C153.142 30.048 153.446 31.712 153.446 33.472C153.446 35.2 153.142 36.848 152.534 38.416C151.926 39.984 151.062 41.376 149.942 42.592C148.822 43.776 147.446 44.72 145.814 45.424C144.182 46.128 142.342 46.48 140.294 46.48ZM133.718 33.472C133.718 34.592 133.878 35.616 134.198 36.544C134.55 37.44 135.014 38.224 135.59 38.896C136.198 39.568 136.902 40.096 137.702 40.48C138.502 40.832 139.366 41.008 140.294 41.008C141.222 41.008 142.086 40.832 142.886 40.48C143.686 40.096 144.374 39.568 144.95 38.896C145.558 38.224 146.022 37.424 146.342 36.496C146.694 35.568 146.87 34.544 146.87 33.424C146.87 32.336 146.694 31.328 146.342 30.4C146.022 29.472 145.558 28.672 144.95 28C144.374 27.328 143.686 26.816 142.886 26.464C142.086 26.08 141.222 25.888 140.294 25.888C139.366 25.888 138.502 26.08 137.702 26.464C136.902 26.848 136.198 27.376 135.59 28.048C135.014 28.72 134.55 29.52 134.198 30.448C133.878 31.376 133.718 32.384 133.718 33.472ZM157.739 10.96H164.171V37.936C164.171 38.864 164.395 39.584 164.843 40.096C165.291 40.608 165.931 40.864 166.763 40.864C167.147 40.864 167.563 40.8 168.011 40.672C168.491 40.544 168.939 40.384 169.355 40.192L170.219 45.088C169.355 45.504 168.347 45.824 167.195 46.048C166.043 46.272 165.003 46.384 164.075 46.384C162.059 46.384 160.491 45.856 159.371 44.8C158.283 43.712 157.739 42.176 157.739 40.192V10.96ZM217.31 46.48C215.39 46.48 213.726 46.08 212.318 45.28C210.91 44.48 209.822 43.36 209.054 41.92V56.224H201.374V20.8H208.046V24.88C208.974 23.44 210.126 22.32 211.502 21.52C212.91 20.72 214.574 20.32 216.494 20.32C218.19 20.32 219.742 20.656 221.15 21.328C222.59 22 223.822 22.928 224.846 24.112C225.902 25.264 226.718 26.64 227.294 28.24C227.902 29.808 228.206 31.504 228.206 33.328C228.206 35.216 227.934 36.96 227.39 38.56C226.846 40.16 226.094 41.552 225.134 42.736C224.174 43.888 223.022 44.8 221.678 45.472C220.334 46.144 218.878 46.48 217.31 46.48ZM214.718 40C215.55 40 216.302 39.824 216.974 39.472C217.678 39.088 218.286 38.592 218.798 37.984C219.31 37.376 219.694 36.672 219.95 35.872C220.238 35.04 220.382 34.176 220.382 33.28C220.382 32.352 220.222 31.504 219.902 30.736C219.614 29.936 219.198 29.248 218.654 28.672C218.142 28.096 217.502 27.648 216.734 27.328C215.998 27.008 215.198 26.848 214.334 26.848C213.278 26.848 212.254 27.168 211.262 27.808C210.302 28.416 209.566 29.248 209.054 30.304V35.488C209.566 36.768 210.334 37.84 211.358 38.704C212.414 39.568 213.534 40 214.718 40Z" fill="black"/>
<path d="M197.31 37.84V46H173.022V11.92H196.878V20.08H182.382V24.88H194.766V32.464H182.382V37.84H197.31Z" fill="#6DB074"/>
<path d="M183.864 23.8653L190.858 0.418355L199.282 4.86661L183.864 23.8653Z" fill="white"/>
<path d="M15.2244 27.561L27.483 48.7369L18.4671 51.8133L15.2244 27.561Z" fill="white"/>
</svg>
