<svg xmlns="http://www.w3.org/2000/svg" viewBox="0 0 99.81 19.8"><defs><style>.cls-1{fill:none;}.cls-2{fill:#6db074;}</style></defs><g id="Layer_2" data-name="Layer 2"><g id="Layer_1-2" data-name="Layer 1"><path class="cls-1" d="M63.41,7.46a2.65,2.65,0,0,0-.91-.69,2.75,2.75,0,0,0-2.27,0,2.85,2.85,0,0,0-.92.7,3,3,0,0,0-.6,1,3.93,3.93,0,0,0,0,2.65,3.05,3.05,0,0,0,.6,1,2.66,2.66,0,0,0,.92.68,2.7,2.7,0,0,0,2.27,0,2.62,2.62,0,0,0,.91-.68A3.19,3.19,0,0,0,64,11.17a3.81,3.81,0,0,0,.22-1.34A3.83,3.83,0,0,0,64,8.5,3.25,3.25,0,0,0,63.41,7.46Z"/><path class="cls-1" d="M95.64,7.75a2.41,2.41,0,0,0-.84-.59A2.67,2.67,0,0,0,93.74,7a2.47,2.47,0,0,0-1.33.41,2.68,2.68,0,0,0-1,1.1v2.27a3.61,3.61,0,0,0,1,1.41,2.25,2.25,0,0,0,1.46.57,2.12,2.12,0,0,0,1-.25,2.68,2.68,0,0,0,.79-.64,2.79,2.79,0,0,0,.51-.93,3.5,3.5,0,0,0,.18-1.12,3.15,3.15,0,0,0-.2-1.13A2.78,2.78,0,0,0,95.64,7.75Z"/><path class="cls-1" d="M22.46,7.46a2.65,2.65,0,0,0-.91-.69,2.75,2.75,0,0,0-2.27,0,2.85,2.85,0,0,0-.92.7,3,3,0,0,0-.6,1,3.93,3.93,0,0,0,0,2.65,3.05,3.05,0,0,0,.6,1,2.66,2.66,0,0,0,.92.68,2.7,2.7,0,0,0,2.27,0,2.62,2.62,0,0,0,.91-.68,3.19,3.19,0,0,0,.61-1.05,3.81,3.81,0,0,0,.22-1.34,3.83,3.83,0,0,0-.22-1.33A3.25,3.25,0,0,0,22.46,7.46Z"/><path class="cls-2" d="M10,10.85,9.87,11l1.7,3.41a6.37,6.37,0,0,0,1.29-.94,4.07,4.07,0,0,0,1-1.47l-3.34-2A2.57,2.57,0,0,1,10,10.85Z"/><path d="M7.58,11.82a3.24,3.24,0,0,1-1.44-.32,3.4,3.4,0,0,1-1.08-.87,4,4,0,0,1-.67-1.26,4.69,4.69,0,0,1-.23-1.49,4.84,4.84,0,0,1,.2-1.4A3.69,3.69,0,0,1,5,5.22a3.07,3.07,0,0,1,1-.9A3,3,0,0,1,7.54,4a5.31,5.31,0,0,1,.87.08,3.45,3.45,0,0,1,.87.3,3,3,0,0,1,.77.56,2.63,2.63,0,0,1,.55.91l3.13-2.23a5.71,5.71,0,0,0-2.36-2.36A7.48,7.48,0,0,0,7.62.34,7.43,7.43,0,0,0,0,7.75a7.48,7.48,0,0,0,.55,2.81A7.77,7.77,0,0,0,2.09,13a7.65,7.65,0,0,0,2.37,1.75,6.81,6.81,0,0,0,3,.67,8.37,8.37,0,0,0,1.62-.18L7.73,11.81Z"/><path d="M24.62,5.85a5.38,5.38,0,0,0-1.8-1.25,6,6,0,0,0-2.41-.46A6,6,0,0,0,18,4.6a5.37,5.37,0,0,0-1.82,1.25A5.29,5.29,0,0,0,15,7.67,6.09,6.09,0,0,0,15,12a5.39,5.39,0,0,0,1.14,1.82A5.51,5.51,0,0,0,18,15.08a6,6,0,0,0,2.41.46,6,6,0,0,0,2.42-.46,5.43,5.43,0,0,0,1.8-1.25A5.72,5.72,0,0,0,25.77,12a6.09,6.09,0,0,0,0-4.34A5.47,5.47,0,0,0,24.62,5.85Zm-1.55,5.32a3.19,3.19,0,0,1-.61,1.05,2.62,2.62,0,0,1-.91.68,2.7,2.7,0,0,1-2.27,0,2.66,2.66,0,0,1-.92-.68,3.05,3.05,0,0,1-.6-1,3.93,3.93,0,0,1,0-2.65,3,3,0,0,1,.6-1,2.85,2.85,0,0,1,.92-.7,2.75,2.75,0,0,1,2.27,0,2.65,2.65,0,0,1,.91.69,3.25,3.25,0,0,1,.61,1,3.83,3.83,0,0,1,.22,1.33A3.81,3.81,0,0,1,23.07,11.17Z"/><path d="M37.65,5.5a2.77,2.77,0,0,0-1-1A3.28,3.28,0,0,0,35,4.14a5.56,5.56,0,0,0-2.6.59A4.09,4.09,0,0,0,30.6,6.36v-2H28.06v11h2.81V8.9A2.94,2.94,0,0,1,31.33,8,3.73,3.73,0,0,1,32,7.26a3.09,3.09,0,0,1,.82-.48,2.51,2.51,0,0,1,.87-.16,1.53,1.53,0,0,1,1.28.6,3.3,3.3,0,0,1,.46,1.94v6.17h2.81V8.46a9.16,9.16,0,0,0-.13-1.57A4.11,4.11,0,0,0,37.65,5.5Z"/><path d="M46,12.79a2.55,2.55,0,0,1-.86.15,1.13,1.13,0,0,1-.75-.25,1,1,0,0,1-.3-.82V6.49h2.31V4.33H44.08V.76H41.26V4.33H39.82V6.49h1.44v6.32a2.93,2.93,0,0,0,.24,1.25,2.3,2.3,0,0,0,.62.84,2.28,2.28,0,0,0,.9.47,3.9,3.9,0,0,0,1.1.15,5.73,5.73,0,0,0,1.72-.25,12.41,12.41,0,0,0,1.39-.51l-.57-2.22Z"/><path d="M54.68,4.18a2.54,2.54,0,0,0-.91.18,4.07,4.07,0,0,0-.93.51,5.86,5.86,0,0,0-.87.79,5.36,5.36,0,0,0-.69,1V4.33H48.7v11h2.81V8.67A2.89,2.89,0,0,1,53,7.26a5.58,5.58,0,0,1,2.29-.5V4.2l-.22,0Z"/><path d="M65.57,5.85a5.48,5.48,0,0,0-1.8-1.25A6.54,6.54,0,0,0,59,4.6a5.37,5.37,0,0,0-1.82,1.25A5.29,5.29,0,0,0,56,7.67,6.09,6.09,0,0,0,56,12a5.39,5.39,0,0,0,1.14,1.82A5.51,5.51,0,0,0,59,15.08a6.57,6.57,0,0,0,4.83,0,5.43,5.43,0,0,0,1.8-1.25A5.72,5.72,0,0,0,66.72,12a6.09,6.09,0,0,0,0-4.34A5.47,5.47,0,0,0,65.57,5.85ZM64,11.17a3.19,3.19,0,0,1-.61,1.05,2.62,2.62,0,0,1-.91.68,2.7,2.7,0,0,1-2.27,0,2.66,2.66,0,0,1-.92-.68,3.05,3.05,0,0,1-.6-1,3.93,3.93,0,0,1,0-2.65,3,3,0,0,1,.6-1,2.85,2.85,0,0,1,.92-.7,2.75,2.75,0,0,1,2.27,0,2.65,2.65,0,0,1,.91.69,3.25,3.25,0,0,1,.61,1,3.83,3.83,0,0,1,.22,1.33A3.81,3.81,0,0,1,64,11.17Z"/><path d="M73.49,13a1.94,1.94,0,0,1-.56.08,1.08,1.08,0,0,1-.84-.33,1.44,1.44,0,0,1-.29-.95V0H69V12.79a2.65,2.65,0,0,0,.73,2,2.81,2.81,0,0,0,2.05.71,7,7,0,0,0,1.36-.15,5.39,5.39,0,0,0,1.32-.42l-.37-2.14A5.71,5.71,0,0,1,73.49,13Z"/><path class="cls-1" d="M95.64,7.75a2.41,2.41,0,0,0-.84-.59A2.67,2.67,0,0,0,93.74,7a2.47,2.47,0,0,0-1.33.41,2.68,2.68,0,0,0-1,1.1v2.27a3.61,3.61,0,0,0,1,1.41,2.25,2.25,0,0,0,1.46.57,2.12,2.12,0,0,0,1-.25,2.68,2.68,0,0,0,.79-.64,2.79,2.79,0,0,0,.51-.93,3.5,3.5,0,0,0,.18-1.12,3.15,3.15,0,0,0-.2-1.13A2.78,2.78,0,0,0,95.64,7.75Z"/><polygon class="cls-2" points="75.66 0.42 75.66 15.33 86.29 15.33 86.29 11.76 79.76 11.76 79.76 9.41 85.17 9.41 85.17 6.09 79.76 6.09 79.76 3.99 80.64 3.99 82.47 0.42 75.66 0.42"/><polygon points="86.1 3.99 86.1 0.42 84.75 0.42 81.69 3.99 86.1 3.99"/><path d="M99.42,7.55a5.63,5.63,0,0,0-1.07-1.81,4.82,4.82,0,0,0-1.62-1.2,4.62,4.62,0,0,0-2-.44,4.32,4.32,0,0,0-2.18.52A4.44,4.44,0,0,0,91,6.09V4.31H88.07V19.8h3.36V13.54A3.58,3.58,0,0,0,92.86,15a4.45,4.45,0,0,0,2.18.52A4.3,4.3,0,0,0,97,15.1a4.64,4.64,0,0,0,1.51-1.21,5.53,5.53,0,0,0,1-1.81,7,7,0,0,0,.36-2.29A6.31,6.31,0,0,0,99.42,7.55Zm-3.21,3.34a2.79,2.79,0,0,1-.51.93,2.68,2.68,0,0,1-.79.64,2.12,2.12,0,0,1-1,.25,2.25,2.25,0,0,1-1.46-.57,3.61,3.61,0,0,1-1-1.41V8.46a2.68,2.68,0,0,1,1-1.1A2.47,2.47,0,0,1,93.74,7a2.67,2.67,0,0,1,1.06.21,2.41,2.41,0,0,1,.84.59,2.78,2.78,0,0,1,.55.89,3.15,3.15,0,0,1,.2,1.13A3.5,3.5,0,0,1,96.21,10.89Z"/></g></g></svg>